<svg width="24" height="24" viewBox="0 0 24 24" fill="none" xmlns="http://www.w3.org/2000/svg">
<path fill-rule="evenodd" clip-rule="evenodd" d="M7.8746 2.29249C7.86953 2.29416 7.85877 2.29846 7.8428 2.30966C5.97109 3.62216 4.75 5.79363 4.75 8.25021C4.75 10.9447 6.21955 13.2969 8.40449 14.5474C8.97456 14.8737 9.38599 15.5017 9.34529 16.229L9.34517 16.2311L9.02755 22.2893C9.00587 22.7029 8.65296 23.0207 8.23932 22.999C7.82567 22.9773 7.50793 22.6244 7.52961 22.2107L7.84742 16.1491L7.84761 16.1456C7.85278 16.0551 7.80044 15.93 7.6594 15.8493C5.02672 14.3425 3.25 11.5043 3.25 8.25021C3.25 5.28399 4.72666 2.66275 6.98159 1.08152C7.53711 0.691979 8.19339 0.717224 8.69061 1.01701C9.17501 1.30906 9.5 1.85156 9.5 2.47765V7.19126C9.5 7.27807 9.54504 7.35867 9.61898 7.40417L11.869 8.78879C11.9493 8.83823 12.0507 8.83823 12.131 8.78879L14.381 7.40417C14.455 7.35867 14.5 7.27807 14.5 7.19126V2.47765C14.5 1.85156 14.825 1.30906 15.3094 1.01701C15.8066 0.717224 16.4629 0.691979 17.0184 1.08152C19.2733 2.66275 20.75 5.28399 20.75 8.25021C20.75 11.5043 18.9733 14.3425 16.3406 15.8493C16.1996 15.93 16.1472 16.0551 16.1524 16.1456L16.1526 16.1491L16.4704 22.2107C16.4921 22.6244 16.1743 22.9773 15.7607 22.999C15.347 23.0207 14.9941 22.7029 14.9724 22.2893L14.6548 16.2311L14.6547 16.2292C14.614 15.5018 15.0254 14.8737 15.5955 14.5474C17.7804 13.2969 19.25 10.9447 19.25 8.25021C19.25 5.79363 18.0289 3.62216 16.1572 2.30966C16.1412 2.29846 16.1305 2.29416 16.1254 2.29249C16.1203 2.29081 16.1154 2.29053 16.1154 2.29053C16.1123 2.29048 16.1013 2.29107 16.0839 2.30159C16.0476 2.32349 16 2.37984 16 2.47765V7.19126C16 7.79896 15.6847 8.36316 15.1672 8.68166L12.9172 10.0663C12.3547 10.4124 11.6453 10.4124 11.0828 10.0663L8.83283 8.68166C8.31527 8.36316 8 7.79896 8 7.19126V2.47765C8 2.37984 7.95244 2.32349 7.91611 2.30159C7.89867 2.29107 7.88774 2.29048 7.88458 2.29053C7.88458 2.29053 7.8797 2.29081 7.8746 2.29249Z" fill="#A5A8B0"/>
</svg>
