<svg width="18" height="22" viewBox="0 0 18 22" fill="none" xmlns="http://www.w3.org/2000/svg">
<path fill-rule="evenodd" clip-rule="evenodd" d="M2 1.5C1.72386 1.5 1.5 1.72386 1.5 2V20C1.5 20.2761 1.72386 20.5 2 20.5H16C16.2761 20.5 16.5 20.2761 16.5 20V7.5H12.5C11.3954 7.5 10.5 6.60457 10.5 5.5V1.5H2ZM12 1.50032V5.5C12 5.77614 12.2239 6 12.5 6H16.4997C16.4952 5.87384 16.4431 5.75379 16.3536 5.66421L12.3358 1.64645C12.2462 1.55687 12.1262 1.5048 12 1.50032ZM0 2C0 0.89543 0.895431 0 2 0H11.9822C12.5127 0 13.0214 0.210714 13.3964 0.585786L17.4142 4.60355C17.7893 4.97863 18 5.48733 18 6.01777V20C18 21.1046 17.1046 22 16 22H2C0.895431 22 0 21.1046 0 20V2Z" fill="#A5A8B0"/>
</svg>
